<svg width="190.50734" height="393.45035" version="1.1" viewBox="0 0 190.50734 393.45036" xmlns="http://www.w3.org/2000/svg"><path d="m145.64926 388.28341c-4.73487-20.33072 25.23303-20.12853 32.40826-35.83272 15.14081-16.79009 17.51218-44.83026 1.31551-61.72467-14.79603-15.6169-38.8572-11.94003-57.81-8.11215-14.81904-52.57709-29.372897-105.22842-43.908255-157.8845 15.354381-7.86287 41.389185 24.57305 37.617575 18.67472-4.09555-18.48313-22.797829-26.77229-39.149625-29.30916-7.937803-14.122613-8.580305-31.581257-14.473267-46.846566-6.2074-22.402283-12.346988-44.823264-18.501806-67.2400261-17.058478-0.4363847-5.408469 16.3603751-4.596627 26.0065921 7.525716 30.546995 15.268366 61.04086 22.589807 91.63795-25.109178 9.79996-51.180394 26.0736-60.24451348 52.86726-5.41393242 25.37893 14.74776448 46.05675 32.26413348 61.36689 17.244003 13.9408 35.370795 32.97882 32.753228 57.00885-2.14929 21.72213-16.751258 39.03427-26.153755 57.82246-8.34378 17.25476 4.331599 35.49001 20.972841 41.03429 19.234243 8.25926 41.475644 6.91672 60.885224-0.0401 7.76341-8.58788 12.04247 10.99486 20.97978 1.84241zm-16.66051-4.29672c0.91876-1.30929 0.73291 0.74614 0 0zm-30.958562-6.11119c-15.819584 5.4536-37.423473-1.79487-38.498354-20.71062-4.114286-20.46876 7.64056-39.09452 13.391626-57.84973 5.518642-30.31015-4.520593-64.19766-29.950599-82.84682-13.54884-13.19706-28.53021-31.59897-21.811731-51.80184 5.987148-17.02961 20.656702-29.75091 36.830289-36.87493 13.571201 1.83873 8.780765 26.48253 14.944848 37.09579 10.034684 40.59249 20.176491 81.15846 30.164993 121.76236-7.710885 2.74654-9.926312 22.54681 1.27092 12.50126 7.44043 8.8315 5.13232 22.00665 9.81398 32.37308 1.45936 5.82566 2.91872 11.65132 4.37808 17.47698-17.89714 2.24365 16.20566 24.57072-6.0808 24.99404-4.72127 1.61681-9.52361 3.05383-14.453242 3.88046zm46.082122-26.6406c4.78712-10.33583-11.02738-7.55394-8.7227-18.41296-1.75947-12.75897-12.14129-30.65663-8.68273-40.13256 16.18438-5.41863 38.06611-2.54975 43.29362 16.4718 4.13573 18.42967-8.04264 36.55299-22.26812 47.1659-3.94144 2.70731-4.28208-2.85204-3.62007-5.09218zm-24.37451-8.89279c-2.34868-14.45845-10.34836-32.96724-9.4469-44.84946 5.68438 12.17089 7.29855 27.3202 11.66764 40.58928 4.5217 6.27737-0.26348 16.80467-2.22074 4.26018zm6.14066-22.517c-2.28093-8.45179-4.56186-16.90359-6.84279-25.35539 8.83963 7.65032 7.99946 26.27826 13.27136 38.04982 4.18316 6.48265 1.74744 18.63269-1.45606 5.96887-1.33581-6.26347-3.45013-12.40062-4.97251-18.6633zm-4.97629 3.41369c0.74608-9.06065-10.28177-19.28071-4.36645-27.05906 3.27023 16.13043 12.264 36.31828 11.5711 50.04596-4.47341-5.85882-4.31046-14.91731-6.98669-22.14626l-0.21767-0.83961zm-25.860613-118.61399c-6.918934-26.57928-14.46907-52.99697-20.811809-79.72414 15.719447 52.58024 29.728022 105.64782 44.457062 158.50878-10.08921-12.64889-8.34333-30.7482-14.70743-45.30813-2.9823-11.15803-5.961202-22.31696-8.937826-33.47651zm15.493693 78.49081c-13.202122-52.09357-27.190579-103.98726-39.938289-156.19589 6.911045 16.83747 9.454605 35.20601 14.869875 52.59531 9.3415 35.11458 18.810464 70.19505 28.241594 105.28561-1.64995 2.01526-3.65048-0.0679-3.17318-1.68503zm-5.14893 1.20127c-12.970959-52.30902-25.875098-104.63459-38.873577-156.93679 7.267845 18.15271 10.069549 37.81615 15.637296 56.55837 8.764914 34.09431 17.605689 68.16923 26.269961 102.28935-1.65766 1.35242-3.28359-0.0335-3.03368-1.91093zm-44.465034-207.492882c-2.370847-9.084483-10.545902-39.517166-9.092248-35.158737 6.566901 24.724832 14.08488 49.197961 19.993058 74.096179-4.495656-12.7262-7.187843-25.981203-10.900768-38.937454zm1.970208 21.298949c-3.826434-15.059351-10.861661-41.817487-12.65615-49.603583 5.995777 22.611543 12.871995 45.000593 17.915379 67.856346-2.603511-5.81409-3.431595-12.19308-5.259229-18.252763zm0.449466 16.444653c-6.014997-24.609522-12.339321-49.143186-18.182709-73.794637 6.263732 25.372979 14.129398 50.959899 19.223984 76.243247-0.347094-0.81621-0.694181-1.63241-1.041275-2.44861zm-17.601298-31.722271c-1.304296-7.094979-5.324545-25.808278-12.298028-11.035459-1.729603 6.906656 5.6558 13.520997 12.298028 11.035459zm18.873064-33.425252c17.048751-6.845047-14.823424-28.203765-5.513983-7.019072 0.8406 2.485925 1.276167 10.709375 5.513983 7.019072zm-27.605505-3.106383c-0.311639-19.058438-18.830149 3.447227-5.087544 8.519088 7.738286 4.534488 9.007228-3.785093 5.087544-8.519088z" fill="#fea" stroke-width=".36349508"/></svg>
