<svg xmlns="http://www.w3.org/2000/svg" viewBox="0 -200 532 591">
<style>@media (prefers-color-scheme: dark) { path { fill: white } }</style>
<defs/><path fill="black" d="M489-147q18 0 31 13t12 30-14 30-30 13q-42 0-42-45 0-18 13-29t30-12zm0 193q18 0 31 14t12 28q0 19-13 32t-30 13q-43 0-43-45 0-16 13-29t30-13zM210-200q81 0 136 56t55 132q0 38-10 74t-34 69-46 59-60 54-62 46-67 41-61 33-56 27l-5-16 27-18 42-27q16-10 48-36t52-46 48-54 42-64 28-71 11-80q0-157-111-157-37 0-63 10t-37 23-17 25-5 18q0 15 20 15 8 0 19-3t15-4q27 0 45 17t18 42q0 29-22 48t-52 19Q69 32 44 9T19-50q0-66 57-108t134-42z"/></svg>